<svg width="21" height="20" viewBox="0 0 21 20" fill="none" xmlns="http://www.w3.org/2000/svg">
<g clip-path="url(#clip0_10_51)">
<path d="M20.466 6.875H18.1273L17.4773 5.25C16.8094 3.5793 15.2152 2.5 13.4156 2.5H8.45469C6.65547 2.5 5.06094 3.5793 4.39258 5.25L3.74258 6.875H1.4043C1.09922 6.875 0.875395 7.16172 0.949614 7.45742L1.18399 8.39492C1.23594 8.60352 1.42344 8.75 1.63868 8.75H2.42266C1.89805 9.2082 1.56016 9.87422 1.56016 10.625V12.5C1.56016 13.1297 1.80079 13.698 2.18516 14.1379V16.25C2.18516 16.9402 2.74493 17.5 3.43516 17.5H4.68516C5.37539 17.5 5.93516 16.9402 5.93516 16.25V15H15.9352V16.25C15.9352 16.9402 16.4949 17.5 17.1852 17.5H18.4352C19.1254 17.5 19.6852 16.9402 19.6852 16.25V14.1379C20.0695 13.6984 20.3102 13.1301 20.3102 12.5V10.625C20.3102 9.87422 19.9723 9.2082 19.4481 8.75H20.232C20.4473 8.75 20.6348 8.60352 20.6867 8.39492L20.9211 7.45742C20.9949 7.16172 20.7711 6.875 20.466 6.875ZM6.71368 6.17852C6.99844 5.4668 7.6879 5 8.45469 5H13.4156C14.1824 5 14.8719 5.4668 15.1566 6.17852L15.9352 8.125H5.93516L6.71368 6.17852ZM4.68516 12.4922C3.93516 12.4922 3.43516 11.9937 3.43516 11.2461C3.43516 10.4984 3.93516 10 4.68516 10C5.43516 10 6.56016 11.1215 6.56016 11.8691C6.56016 12.6168 5.43516 12.4922 4.68516 12.4922ZM17.1852 12.4922C16.4352 12.4922 15.3102 12.6168 15.3102 11.8691C15.3102 11.1215 16.4352 10 17.1852 10C17.9352 10 18.4352 10.4984 18.4352 11.2461C18.4352 11.9937 17.9352 12.4922 17.1852 12.4922Z" fill="white"/>
</g>
<defs>
<clipPath id="clip0_10_51">
<rect width="20" height="20" fill="white" transform="translate(0.935181)"/>
</clipPath>
</defs>
</svg>
