<svg width="21" height="20" viewBox="0 0 21 20" fill="none" xmlns="http://www.w3.org/2000/svg">
<g clip-path="url(#clip0_10_53)">
<path d="M18.4766 2.22222H1.80998C0.889838 2.22222 0.143311 2.96875 0.143311 3.88889V4.44444H20.1433V3.88889C20.1433 2.96875 19.3968 2.22222 18.4766 2.22222ZM0.143311 16.1111C0.143311 17.0312 0.889838 17.7778 1.80998 17.7778H18.4766C19.3968 17.7778 20.1433 17.0312 20.1433 16.1111V5.55556H0.143311V16.1111ZM12.3655 8.05556C12.3655 7.90278 12.4905 7.77778 12.6433 7.77778H17.6433C17.7961 7.77778 17.9211 7.90278 17.9211 8.05556V8.61111C17.9211 8.76389 17.7961 8.88889 17.6433 8.88889H12.6433C12.4905 8.88889 12.3655 8.76389 12.3655 8.61111V8.05556ZM12.3655 10.2778C12.3655 10.125 12.4905 10 12.6433 10H17.6433C17.7961 10 17.9211 10.125 17.9211 10.2778V10.8333C17.9211 10.9861 17.7961 11.1111 17.6433 11.1111H12.6433C12.4905 11.1111 12.3655 10.9861 12.3655 10.8333V10.2778ZM12.3655 12.5C12.3655 12.3472 12.4905 12.2222 12.6433 12.2222H17.6433C17.7961 12.2222 17.9211 12.3472 17.9211 12.5V13.0556C17.9211 13.2083 17.7961 13.3333 17.6433 13.3333H12.6433C12.4905 13.3333 12.3655 13.2083 12.3655 13.0556V12.5ZM6.25442 7.77778C7.48012 7.77778 8.47664 8.77431 8.47664 10C8.47664 11.2257 7.48012 12.2222 6.25442 12.2222C5.02873 12.2222 4.0322 11.2257 4.0322 10C4.0322 8.77431 5.02873 7.77778 6.25442 7.77778ZM2.47317 14.8681C2.76484 13.9757 3.60164 13.3333 4.58776 13.3333H4.87248C5.29956 13.5104 5.76484 13.6111 6.25442 13.6111C6.74401 13.6111 7.21276 13.5104 7.63637 13.3333H7.92109C8.9072 13.3333 9.74401 13.9757 10.0357 14.8681C10.1468 15.2118 9.85512 15.5556 9.49401 15.5556H3.01484C2.65373 15.5556 2.36206 15.2083 2.47317 14.8681Z" fill="white"/>
</g>
<defs>
<clipPath id="clip0_10_53">
<rect width="20" height="20" fill="white" transform="translate(0.143311)"/>
</clipPath>
</defs>
</svg>
