<svg width="21" height="20" viewBox="0 0 21 20" fill="none" xmlns="http://www.w3.org/2000/svg">
<g clip-path="url(#clip0_10_49)">
<path d="M18.713 12.2222C18.713 12.2222 16.4908 15.4392 16.4908 16.6667C16.4908 17.8941 17.4859 18.8889 18.713 18.8889C19.9401 18.8889 20.9352 17.8941 20.9352 16.6667C20.9352 15.4392 18.713 12.2222 18.713 12.2222ZM18.3876 8.64792L11.1762 1.43646C10.9592 1.21944 10.6748 1.11111 10.3904 1.11111C10.106 1.11111 9.82167 1.21944 9.60501 1.43646L6.77237 4.2691L3.78001 1.27639C3.56299 1.05937 3.21126 1.05937 2.99459 1.27639L2.20917 2.06181C1.99251 2.27882 1.99251 2.63056 2.20917 2.84722L5.20188 5.83958L1.9116 9.12986C0.609869 10.4312 0.609869 12.5417 1.9116 13.8434L5.9807 17.9125C6.6314 18.5632 7.48452 18.8889 8.3373 18.8889C9.19042 18.8889 10.0432 18.5635 10.6939 17.9125L18.3873 10.2191C18.8213 9.78507 18.8213 9.08194 18.3876 8.64792ZM14.3522 11.1122H3.22445C3.27167 10.9788 3.34841 10.8351 3.48244 10.7014L3.93904 10.2448L6.77272 7.41111L8.80744 9.44583C9.24112 9.87951 9.94459 9.87951 10.3783 9.44583C10.812 9.01215 10.812 8.30868 10.3783 7.875L8.34355 5.84028L10.3904 3.7934L16.0307 9.43368L14.3522 11.1122Z" fill="white"/>
</g>
<defs>
<clipPath id="clip0_10_49">
<rect width="20" height="20" fill="white" transform="translate(0.935181)"/>
</clipPath>
</defs>
</svg>
